<?xml version="1.0" standalone="no"?><!DOCTYPE svg PUBLIC "-//W3C//DTD SVG 1.1//EN" "http://www.w3.org/Graphics/SVG/1.1/DTD/svg11.dtd"><svg t="1508663221119" class="icon" style="" viewBox="0 0 1024 1024" version="1.1" xmlns="http://www.w3.org/2000/svg" p-id="3323" xmlns:xlink="http://www.w3.org/1999/xlink" width="64" height="64"><defs><style type="text/css"></style></defs><path d="M512 0c-282.761705 0-511.98976 71.637607-511.98976 160.00704l0 96.00832 383.99232 383.99232 0 319.9936c0 35.347773 57.301894 63.99872 127.99744 63.99872s127.99744-28.650947 127.99744-63.99872l0-319.9936 383.99232-383.99232 0-96.00832c0-88.369433-229.228055-160.00704-511.98976-160.00704zM94.400672 138.831143c23.940641-13.659887 57.588608-26.623468 97.278054-37.47765 87.939361-24.083998 201.703486-37.334293 320.341753-37.334293s232.381912 13.250295 320.341753 37.334293c39.689446 10.874663 73.337413 23.838243 97.278054 37.47765 15.789764 9.01102 24.329753 16.629427 28.302794 21.175896-3.973041 4.546469-12.51303 12.164877-28.302794 21.175896-23.940641 13.659887-57.588608 26.623468-97.278054 37.47765-87.939361 24.083998-201.703486 37.334293-320.341753 37.334293s-232.381912-13.250295-320.341753-37.334293c-39.689446-10.874663-73.337413-23.838243-97.278054-37.47765-15.789764-9.01102-24.329753-16.629427-28.302794-21.175896 3.973041-4.546469 12.51303-12.164877 28.302794-21.175896z" p-id="3324"></path></svg>