<?xml version="1.0" standalone="no"?><!DOCTYPE svg PUBLIC "-//W3C//DTD SVG 1.1//EN" "http://www.w3.org/Graphics/SVG/1.1/DTD/svg11.dtd"><svg t="1508956169151" class="icon" style="" viewBox="0 0 1024 1024" version="1.1" xmlns="http://www.w3.org/2000/svg" p-id="3990" xmlns:xlink="http://www.w3.org/1999/xlink" width="64" height="64"><defs><style type="text/css"></style></defs><path d="M541.538462 315.076923c11.815385-11.815385 11.815385-29.538462 0-41.353846l-224.492308-226.461538c-11.815385-11.815385-29.538462-11.815385-41.353846 0l-226.461538 226.461538c-11.815385 11.815385-11.815385 29.538462 0 41.353846l41.353846 41.353846c11.815385 11.815385 29.538462 11.815385 41.353846 0l70.892308-70.892308c11.815385-11.815385 33.476923-3.938462 33.476923 13.784615l0 417.476923c0 15.753846 13.784615 29.538462 29.538462 29.538462l59.076923 0c15.753846 0 29.538462-15.753846 29.538462-29.538462l0-417.476923c0-17.723077 21.661538-25.6 33.476923-13.784615l70.892308 70.892308c11.815385 11.815385 29.538462 11.815385 41.353846 0l41.353846-41.353846zm433.230769 393.846154l-41.353846-39.384615c-11.815385-11.815385-29.538462-11.815385-41.353846 0l-70.892308 70.892308c-11.815385 11.815385-33.476923 3.938462-33.476923-13.784615l0-421.415385c0-15.753846-13.784615-29.538462-29.538462-29.538462l-59.076923 0c-15.753846 0-29.538462 15.753846-29.538462 29.538462l0 417.476923c0 17.723077-21.661538 25.6-33.476923 13.784615l-70.892308-70.892308c-11.815385-11.815385-29.538462-11.815385-41.353846 0l-41.353846 43.323077c-11.815385 11.815385-11.815385 29.538462 0 41.353846l226.461538 226.461538c11.815385 11.815385 29.538462 11.815385 41.353846 0l226.461538-226.461538c9.846154-11.815385 9.846154-31.507692-1.969231-41.353846z" p-id="3991"></path></svg>