<?xml version="1.0" standalone="no"?><!DOCTYPE svg PUBLIC "-//W3C//DTD SVG 1.1//EN" "http://www.w3.org/Graphics/SVG/1.1/DTD/svg11.dtd"><svg t="1494934836808" class="icon" style="" viewBox="0 0 1024 1024" version="1.1" xmlns="http://www.w3.org/2000/svg" p-id="2507" xmlns:xlink="http://www.w3.org/1999/xlink" width="200" height="200"><defs><style type="text/css"></style></defs><path d="M381.362558 958.107176c-5.820845-1.014145-11.720488-1.705933-17.449231-3.097696-37.060812-9.004503-56.26612-35.457214-54.619542-74.927004 1.310918-31.412914 8.87249-61.608035 17.587384-91.612812 14.138677-48.681011 33.749234-95.349082 52.2034-142.439799 26.125237-66.67262 52.459239-133.267465 78.636667-199.919619 2.921679-7.433653 5.263116-15.002388 4.081141-23.259842-1.690583-11.833057-10.512929-18.31499-22.316309-16.01244-14.052715 2.742592-25.166353 10.920224-35.705889 19.89198-18.770383 15.978669-34.158576 35.152254-50.260048 53.668845-11.223137 12.909627-22.857664 25.483593-34.750075 37.782277-4.039183 4.17836-9.03418 7.891093-15.864054 6.115571-9.096605-2.365997-15.918291-12.066382-13.091784-20.922499 2.384418-7.47561 5.978442-14.806928 10.291884-21.379939 12.796034-19.501058 28.9016-36.303529 44.953951-53.113163 25.560345-26.763811 52.946356-51.310011 84.724607-70.617655 35.035592-21.28579 72.467881-35.815388 113.462471-40.148275 20.894868-2.208401 41.731405-2.567598 62.01533 4.402474 29.962819 10.294954 46.384602 31.624748 50.454486 62.638554 3.489642 26.601097-0.737839 52.600462-9.466036 77.550887-20.005572 57.186117-40.826759 114.089787-61.602918 171.004715-18.34262 50.241628-37.132447 100.318495-55.592753 150.517142-4.758602 12.938281-8.880677 26.093513-9.409752 40.053103-0.065495 1.734587-0.058331 3.490665 0.132013 5.212972 1.260774 11.416552 10.115867 17.645715 21.328771 15.046393 8.54911-1.981216 15.69213-6.707071 22.583404-11.813613 18.090875-13.409024 32.858915-30.257546 47.951359-46.747893 13.234031-14.45694 26.183568-29.175859 39.506631-43.549908 3.715803-4.008483 8.22266-7.311874 12.521775-10.745231 3.763901-3.004571 7.763173-2.617743 11.736862-0.184204 7.809224 4.783163 11.49842 14.770087 8.714894 24.416234-3.229709 11.191413-9.591909 20.80072-16.273396 30.096879-28.148411 39.16483-63.036639 71.645104-101.347991 100.53033-33.290771 25.099835-68.908652 46.168674-108.677261 59.558254-17.245583 5.807541-34.859574 9.854911-53.042551 11.265095-1.427581 0.110522-2.830601 0.489164-4.246924 0.741933C394.141195 958.107176 387.752388 958.107176 381.362558 958.107176z" p-id="2508"></path><path d="M649.724178 65.892824c8.346486 1.742774 16.967231 2.676074 24.996476 5.368522 35.194212 11.80645 54.915291 37.016807 59.258411 73.354107 6.997703 58.549226-29.637392 108.531945-87.822304 120.375236-25.108022 5.11166-49.768838 2.959543-72.500629-10.162941-22.279468-12.860506-34.594525-32.792397-39.719489-57.585225-9.160053-44.316401 11.179133-90.674395 49.904944-114.211567 15.132355-9.197917 31.323882-14.956338 48.993134-16.480114 0.995725-0.085962 1.966889-0.432879 2.948287-0.659041C640.429042 65.892824 645.076098 65.892824 649.724178 65.892824z" p-id="2509"></path></svg>
