<?xml version="1.0" standalone="no"?><!DOCTYPE svg PUBLIC "-//W3C//DTD SVG 1.1//EN" "http://www.w3.org/Graphics/SVG/1.1/DTD/svg11.dtd"><svg t="1494935730348" class="icon" style="" viewBox="0 0 1024 1024" version="1.1" xmlns="http://www.w3.org/2000/svg" p-id="3279" xmlns:xlink="http://www.w3.org/1999/xlink" width="200" height="200"><defs><style type="text/css"></style></defs><path d="M631.235127 574.078871c-35.687804-41.915645-77.175707-73.502038-121.901351-93.485161 7.377014-5.529947 14.414291-11.616572 21.049409-18.251689 36.517705-36.515658 56.625672-85.064374 56.625672-136.705522 0-51.640124-20.107967-100.189863-56.625672-136.705522-36.514635-36.515658-85.063351-56.625672-136.703475-56.625672-51.641147 0-100.190887 20.110013-136.706545 56.625672-36.514635 36.515658-56.624648 85.064374-56.624648 136.705522s20.110013 100.189863 56.624648 136.705522c6.635117 6.636141 13.673417 12.721743 21.050432 18.251689-44.724621 19.983123-86.213547 51.569516-121.901351 93.485161C93.579817 647.534859 53.078381 747.831146 42.080909 856.493985c-1.778506 17.572214 11.024078 33.257451 28.595268 35.035958 17.565051 1.769296 33.257451-11.024078 35.035958-28.594245 9.702989-95.869465 44.899606-183.727465 99.107205-247.394507 26.118867-30.677697 55.570643-54.553477 87.535659-70.966285 32.398898-16.634866 66.48932-25.069979 101.32471-25.069979 34.834366 0 68.923766 8.43409 101.323687 25.069979 31.965016 16.412808 61.416791 40.288588 87.536682 70.966285 54.205553 63.667042 89.403193 151.525042 99.107205 247.394507 1.666966 16.477276 15.563464 28.758997 31.776727 28.758997 1.077541 0 2.164293-0.054235 3.260254-0.163729 17.570167-1.778506 30.373775-17.463744 28.594245-35.035958C734.280014 747.831146 693.779601 647.534859 631.235127 574.078871zM393.679709 196.261942c71.336722 0 129.372509 58.036811 129.372509 129.374556S465.016431 455.011055 393.679709 455.011055c-71.337745 0-129.374556-58.036811-129.374556-129.374556S322.341964 196.261942 393.679709 196.261942z" p-id="3280"></path><path d="M981.918068 856.493985c-10.996448-108.662839-51.498908-208.958102-114.042359-282.414091-35.687804-41.915645-77.175707-73.502038-121.901351-93.485161 7.377014-5.529947 14.414291-11.616572 21.049409-18.251689 36.517705-36.515658 56.627718-85.064374 56.627718-136.705522 0-51.640124-20.110013-100.189863-56.627718-136.705522-36.515658-36.515658-85.064374-56.625672-136.703475-56.625672-17.662265 0-31.978319 14.317077-31.978319 31.978319s14.316054 31.978319 31.978319 31.978319c71.335698 0 129.372509 58.036811 129.372509 129.374556s-58.036811 129.374556-129.372509 129.374556c-17.662265 0-31.978319 14.317077-31.978319 31.978319 0 0.090051 0.00614 0.179079 0.00614 0.26913s-0.00614 0.179079-0.00614 0.26913c0 17.661242 14.316054 31.978319 31.978319 31.978319 34.834366 0 68.923766 8.43409 101.323687 25.069979 31.963992 16.412808 61.416791 40.288588 87.536682 70.966285 54.207599 63.667042 89.403193 151.525042 99.107205 247.394507 1.666966 16.477276 15.563464 28.758997 31.776727 28.758997 1.077541 0 2.164293-0.054235 3.260254-0.163729C970.892967 889.751437 983.696574 874.065176 981.918068 856.493985z" p-id="3281"></path></svg>
