<?xml version="1.0" standalone="no"?><!DOCTYPE svg PUBLIC "-//W3C//DTD SVG 1.1//EN" "http://www.w3.org/Graphics/SVG/1.1/DTD/svg11.dtd"><svg class="icon" width="200px" height="200.00px" viewBox="0 0 1024 1024" version="1.1" xmlns="http://www.w3.org/2000/svg"><path fill="#333333" d="M100.352 138.24c223.232 0 445.44-1.024 668.672-1.024 44.032 12.288 71.68 41.984 71.68 88.064 2.048 76.8 0 154.624 1.024 231.424 0 28.672-18.432 22.528-33.792 22.528-17.408 1.024-30.72 1.024-29.696-23.552 1.024-71.68 1.024-143.36 0-215.04 0-35.84-9.216-45.056-45.056-45.056H138.24c-34.816 0-44.032 8.192-44.032 41.984v414.72c0 33.792 10.24 43.008 47.104 43.008 130.048 0 260.096 1.024 389.12-1.024 26.624 0 30.72 9.216 31.744 32.768 0 23.552-7.168 30.72-30.72 29.696-132.096-1.024-264.192 0-396.288-1.024-66.56 2.048-102.4-34.816-103.424-101.376V236.544c1.024-53.248 22.528-82.944 68.608-98.304z m409.6 261.12c25.6 1.024 22.528-15.36 22.528-30.72s4.096-31.744-22.528-31.744c-89.088 1.024-177.152 1.024-266.24 0-27.648 0-23.552 16.384-24.576 32.768 0 17.408-1.024 30.72 23.552 29.696 44.032-2.048 89.088-1.024 133.12-1.024 45.056 1.024 90.112 0 134.144 1.024zM386.048 553.984c26.624 1.024 20.48-17.408 21.504-32.768 0-14.336 4.096-29.696-20.48-29.696-48.128 1.024-97.28 0-145.408 0-7.168 0-16.384-2.048-19.456 6.144-4.096 15.36-5.12 31.744 0 47.104 4.096 12.288 18.432 7.168 27.648 7.168 21.504 1.024 41.984 0 63.488 0 24.576 2.048 49.152 1.024 72.704 2.048z m244.736 319.488c-11.264-13.312-23.552-25.6-32.768-39.936-8.192-13.312 6.144-18.432 12.288-24.576 91.136-92.16 184.32-182.272 274.432-275.456 20.48-21.504 28.672-7.168 41.984 5.12 14.336 13.312 20.48 22.528 3.072 39.936-93.184 91.136-185.344 184.32-278.528 276.48-4.096 5.12-10.24 9.216-20.48 18.432zM737.28 572.416c0 50.176-39.936 90.112-91.136 89.088-50.176 0-89.088-39.936-89.088-91.136s38.912-89.088 90.112-89.088c52.224 2.048 90.112 39.936 90.112 91.136z m-117.76-1.024c0 17.408 9.216 27.648 26.624 27.648 17.408 0 27.648-10.24 28.672-26.624 0-17.408-10.24-26.624-27.648-28.672-16.384 1.024-27.648 10.24-27.648 27.648z m372.736 225.28c0 50.176-39.936 90.112-91.136 89.088-50.176 0-89.088-39.936-89.088-91.136s38.912-89.088 90.112-89.088c52.224 1.024 90.112 39.936 90.112 91.136z m-117.76-1.024c0 17.408 9.216 27.648 26.624 27.648 17.408 0 27.648-10.24 28.672-26.624 0-17.408-10.24-26.624-27.648-28.672-16.384 1.024-27.648 10.24-27.648 27.648z" /></svg>
