<?xml version="1.0" standalone="no"?><!DOCTYPE svg PUBLIC "-//W3C//DTD SVG 1.1//EN" "http://www.w3.org/Graphics/SVG/1.1/DTD/svg11.dtd"><svg class="icon" width="200px" height="200.00px" viewBox="0 0 1024 1024" version="1.1" xmlns="http://www.w3.org/2000/svg"><path d="M858.330308 461.165218 609.930915 461.165218c-55.164391 0-124.201743-38.861076-124.201743-99.360985L485.729172 163.082262c0-60.545958 52.320623-99.382475 107.48706-99.382475l151.803381 0c13.538341 0 24.503067 10.964726 24.503067 24.498974s-10.964726 24.503067-24.503067 24.503067L593.216231 112.701828c-28.141944 0-57.805544 41.697681-57.805544 75.220169l0 173.882236c0 33.476439 21.539572 49.680493 49.680493 49.680493l273.240151 0c28.137851 0 50.358945-23.385617 50.358945-56.857962l0-24.697495c0-13.535271 10.967796-24.499997 24.503067-24.499997 13.534248 0 24.498974 10.964726 24.498974 24.499997l0 24.697495C957.692317 415.126672 913.494699 461.165218 858.330308 461.165218zM933.19232 256.4303c-13.536294 0-24.503067-10.964726-24.503067-24.503067l0-58.459437c0-33.525558-22.899546-60.765969-51.060933-60.765969-13.512758 0-24.498974-10.967796-24.498974-24.503067s10.986215-24.498974 24.498974-24.498974c55.186903 0 100.063997 49.218982 100.063997 109.768009l0 58.459437C957.692317 245.465574 946.726567 256.4303 933.19232 256.4303zM535.410688 659.889235l0 173.881213c0 60.499909-52.350298 124.201743-107.513666 124.201743l-58.558697 0c-13.537318 0-24.498974-10.965749-24.498974-24.498974 0-13.538341 10.961656-24.499997 24.498974-24.499997l58.558697 0c28.137851 0 57.833173-41.72531 57.833173-75.201749L485.730195 659.889235c0-33.523511-46.382377-49.681516-74.521251-49.681516L162.806481 610.207719c-28.14092 0-50.386574 23.335475-50.386574 56.860009l0 35.320437c0 13.537318-10.961656 24.502044-24.499997 24.502044-13.535271 0-24.498974-10.964726-24.498974-24.502044l0-35.320437c0-60.544935 44.221154-106.540502 99.385545-106.540502l273.243221 0C491.21 560.527227 535.410688 599.342254 535.410688 659.889235zM361.527428 113.40177c-77.821413 41.3385-103.268992 132.766816-124.20072 248.403486L361.527428 361.805256l-155.153686 149.286048L63.444473 361.805256l124.201743 0c31.364335-196.876949 112.410186-276.005125 196.195428-296.820196 3.472078-0.873903 6.989181-1.068332 10.435677-1.263783 17.124006-0.944512 20.98187-2.545986 16.931624 24.839735C408.756079 105.155968 382.145002 102.440114 361.527428 113.40177zM87.91991 775.890202c13.537318 0 24.499997 10.964726 24.499997 24.498974l0 47.837518c0 33.477462 22.901593 60.744479 51.064003 60.744479l52.300156 0c13.535271 0 24.503067 10.961656 24.503067 24.499997 0 13.534248-10.968819 24.498974-24.503067 24.498974l-52.300156 0c-55.18895 0-100.063997-49.244564-100.063997-109.744473l0-47.837518C63.420937 786.854928 74.384639 775.890202 87.91991 775.890202zM660.942729 908.290675c77.456093-41.384549 102.778828-132.788306 123.644041-248.40144L660.942729 659.889235l154.451698-149.284001 142.298913 149.284001L834.051345 659.889235c-31.222095 196.854437-111.904673 275.982612-195.328687 296.773124-3.467985 0.873903-6.961552 1.11438-10.379395 1.309832-17.080004 0.921999-20.889773 2.523473-16.864086-24.840758C613.906459 916.539546 640.39781 919.256424 660.942729 908.290675z" /></svg>
