<?xml version="1.0" standalone="no"?><!DOCTYPE svg PUBLIC "-//W3C//DTD SVG 1.1//EN" "http://www.w3.org/Graphics/SVG/1.1/DTD/svg11.dtd"><svg class="icon" width="200px" height="200.00px" viewBox="0 0 1024 1024" version="1.1" xmlns="http://www.w3.org/2000/svg"><path d="M634.88 362.496l-145.408 145.408c-4.096 4.096-10.24 4.096-14.336 0L409.6 440.32c-12.288-12.288-30.72-12.288-43.008 0s-12.288 30.72 0 43.008l43.008 43.008 43.008 43.008c16.384 16.384 43.008 16.384 57.344 0l165.888-165.888c12.288-12.288 12.288-30.72 0-43.008s-30.72-10.24-40.96 2.048z"  /><path d="M962.56 249.856C727.04 202.752 808.96 40.96 808.96 40.96h-593.92S294.912 202.752 61.44 249.856c0 0-30.72 485.376 450.56 733.184 481.28-247.808 450.56-733.184 450.56-733.184zM512 913.408C176.128 724.992 129.024 411.648 122.88 296.96c73.728-22.528 122.88-61.44 149.504-114.688 14.336-28.672 18.432-55.296 18.432-81.92h442.368c0 24.576 4.096 53.248 18.432 81.92 26.624 53.248 75.776 90.112 149.504 114.688-6.144 116.736-53.248 428.032-389.12 616.448z"  /><path d="M679.936 159.744H344.064s-10.24 129.024-157.696 174.08c0 0 10.24 303.104 323.584 514.048 313.344-210.944 323.584-514.048 323.584-514.048-143.36-45.056-153.6-174.08-153.6-174.08zM512 798.72c-221.184-159.744-268.288-362.496-280.576-436.224 96.256-40.96 133.12-114.688 145.408-159.744h270.336c14.336 45.056 49.152 118.784 145.408 159.744-12.288 73.728-61.44 276.48-280.576 436.224z"  /></svg>
