<?xml version="1.0" standalone="no"?><!DOCTYPE svg PUBLIC "-//W3C//DTD SVG 1.1//EN" "http://www.w3.org/Graphics/SVG/1.1/DTD/svg11.dtd"><svg class="icon" width="200px" height="200.00px" viewBox="0 0 1024 1024" version="1.1" xmlns="http://www.w3.org/2000/svg"><path d="M831.993 1024 192.006 1024c-70.708 0-127.987-57.329-127.987-127.987L64.019 256.025c0-70.708 57.279-128.037 127.987-128.037l95.978 0 0-63.97 86.217 0C401.9 25.915 452.935 0 511.999 0S622.1 25.915 649.798 64.018l86.167 0 0 63.97 96.027 0c70.659 0 127.988 57.329 127.988 128.037l0 639.988C959.981 966.671 902.652 1024 831.993 1024L831.993 1024zM671.997 127.988l-71.105 0c0-35.33-39.788-63.97-88.893-63.97-49.104 0-88.893 28.64-88.893 63.97l-71.103 0 0 128.037 319.994 0L671.997 127.988 671.997 127.988zM895.962 256.025c0-35.379-28.64-64.018-63.969-64.018l-96.027 0 0 127.987L287.985 319.994 287.985 192.007l-95.978 0c-35.329 0-64.019 28.64-64.019 64.018l0 639.988c0 35.328 28.691 63.968 64.019 63.968l639.987 0c35.329 0 63.969-28.64 63.969-63.968L895.963 256.025 895.962 256.025zM735.966 831.993 287.985 831.993c-17.64 0-31.96-14.32-31.96-32.009 0-17.69 14.32-32.01 31.96-32.01l447.981 0c17.689 0 32.009 14.32 32.009 32.01C767.974 817.673 753.654 831.993 735.966 831.993L735.966 831.993zM735.966 671.996 287.985 671.996c-17.64 0-31.96-14.32-31.96-32.009 0-17.64 14.32-32.009 31.96-32.009l447.981 0c17.689 0 32.009 14.369 32.009 32.009C767.974 657.677 753.654 671.996 735.966 671.996L735.966 671.996zM735.966 512 287.985 512c-17.64 0-31.96-14.32-31.96-32.01s14.32-32.01 31.96-32.01l447.981 0c17.689 0 32.009 14.32 32.009 32.01S753.654 512 735.966 512L735.966 512z" /></svg>
