<?xml version="1.0" standalone="no"?><!DOCTYPE svg PUBLIC "-//W3C//DTD SVG 1.1//EN" "http://www.w3.org/Graphics/SVG/1.1/DTD/svg11.dtd"><svg class="icon" width="200px" height="200.00px" viewBox="0 0 1024 1024" version="1.1" xmlns="http://www.w3.org/2000/svg"><path d="M532.058353 391.529412H461.824v70.294588h70.234353V391.529412z m140.589176 0H602.352941v70.294588h70.294588V391.529412z m105.411765 228.412235c-43.971765 0-86.136471-7.047529-125.470118-20.058353a35.84 35.84 0 0 0-35.84 8.432941l-77.281882 77.342118a529.648941 529.648941 0 0 1-231.54447-231.243294l77.281882-77.643294a34.514824 34.514824 0 0 0 8.794353-35.538824 399.179294 399.179294 0 0 1-20.058353-125.409882A35.237647 35.237647 0 0 0 338.823529 180.705882H215.823059A35.237647 35.237647 0 0 0 180.705882 215.823059a597.293176 597.293176 0 0 0 597.353412 597.353412c19.275294 0 35.117176-15.781647 35.117177-35.117177v-123.00047a35.237647 35.237647 0 0 0-35.117177-35.117177zM742.881882 391.529412v70.294588H813.176471V391.529412h-70.294589z" /></svg>
