<?xml version="1.0" standalone="no"?><!DOCTYPE svg PUBLIC "-//W3C//DTD SVG 1.1//EN" "http://www.w3.org/Graphics/SVG/1.1/DTD/svg11.dtd"><svg t="1498467716426" class="icon" style="" viewBox="0 0 1024 1024" version="1.1" xmlns="http://www.w3.org/2000/svg" p-id="583" xmlns:xlink="http://www.w3.org/1999/xlink" width="210" height="210"><defs><style type="text/css"></style></defs><path d="M512 96.001411c-229.978921 0-415.998589 186.967941-415.998589 415.998589 0 229.030648 186.967941 415.998589 415.998589 415.998589 229.978921 0 415.998589-186.967941 415.998589-415.998589C927.998589 282.969352 741.030648 96.001411 512 96.001411zM852.294748 494.231159l-92.546986 0c-3.747938-54.20964-26.167835-103.768223-59.831547-143.031265l65.430877-65.430877C815.831371 340.92693 848.54681 413.853684 852.294748 494.231159zM723.284385 512.948274c0 6.547603 0 12.146933-0.948274 18.694536-3.747938 43.936676-21.494201 84.125413-48.61031 116.86343-8.421573 9.347268-16.820567 18.694536-26.167835 26.167835-31.789743 27.116109-72.926754 44.88495-116.86343 48.61031-6.547603 0.925696-12.146933 0.925696-18.694536 0.925696s-12.146933 0-18.694536-0.925696c-43.936676-3.747938-84.125413-21.494201-116.86343-48.61031-9.347268-8.421573-18.694536-16.820567-26.167835-26.167835-27.116109-31.789743-44.862372-72.926754-48.61031-116.86343-0.925696-6.547603-0.925696-12.146933-0.925696-18.694536s0-12.146933 0.925696-18.694536c3.747938-43.936676 21.494201-84.125413 48.61031-116.86343 8.421573-9.347268 16.820567-18.694536 26.167835-26.167835 31.789743-27.116109 72.926754-44.862372 116.86343-48.61031 6.547603-0.925696 12.146933-0.925696 18.694536-0.925696s12.146933 0 18.694536 0.925696c43.936676 3.747938 84.147991 21.494201 116.86343 48.61031 9.347268 8.421573 18.694536 16.820567 26.167835 26.167835 27.116109 31.789743 44.88495 72.926754 48.61031 116.86343C722.336111 499.853067 723.284385 506.40067 723.284385 512.948274zM673.725801 324.106363c-39.263042-33.663712-88.799047-55.157913-143.031265-59.831547L530.694536 171.72783c80.400053 4.673634 153.304229 36.463377 209.410416 86.947656L673.725801 324.106363zM493.305464 171.72783l0 93.472682c-54.20964 3.747938-103.768223 26.167835-143.031265 59.831547l-65.430877-65.430877C340.001235 208.191207 412.905411 176.401464 493.305464 171.72783zM257.727213 284.843321l65.430877 65.430877c-33.663712 39.263042-55.157913 88.799047-59.831547 143.031265L169.853861 493.305464C175.45319 413.853684 207.242933 340.92693 257.727213 284.843321zM170.779556 531.64281l92.546986 0c3.747938 54.20964 26.167835 103.768223 59.831547 143.031265l-65.430877 65.430877C207.242933 684.021343 175.45319 611.094589 170.779556 531.64281zM349.348503 700.84191c39.263042 33.663712 88.799047 55.157913 143.031265 59.831547l0 92.546986c-80.400053-4.673634-153.304229-36.463377-209.410416-86.947656L349.348503 700.84191zM530.694536 853.220444 530.694536 759.747762c54.232218-3.747938 103.768223-26.167835 143.031265-59.831547l65.430877 65.430877C683.07307 816.757067 610.168894 849.472505 530.694536 853.220444zM765.347092 740.104952 699.916215 674.674075c33.663712-39.263042 55.157913-88.799047 59.831547-143.031265l93.49526 0C848.54681 611.094589 815.831371 684.021343 765.347092 740.104952z" p-id="584"></path><path d="M587.726419 462.463994c15.894871 0 28.041804-12.146933 28.041804-28.041804s-12.146933-28.041804-28.041804-28.041804c-15.894871 0-28.041804 12.146933-28.041804 28.041804 0 2.799665 0.925696 5.59933 1.873969 8.421573l-22.442475 22.442475c-7.473299-4.673634-16.820567-7.473299-27.116109-7.473299s-18.694536 2.799665-27.116109 7.473299l-22.442475-22.442475c0.948274-2.799665 1.873969-5.59933 1.873969-8.421573 0-15.894871-12.146933-28.041804-28.041804-28.041804s-28.041804 12.146933-28.041804 28.041804 12.146933 28.041804 28.041804 28.041804c1.873969 0 3.747938 0 5.59933-0.925696l23.36817 23.36817c-4.673634 7.473299-7.473299 16.820567-7.473299 27.116109 0 9.347268 2.799665 18.694536 7.473299 27.116109l-24.316444 24.316444c-1.873969 0-2.799665 0-4.673634 0-15.894871 0-28.041804 12.146933-28.041804 28.041804s12.146933 28.041804 28.041804 28.041804 28.041804-12.146933 28.041804-28.041804c0-3.747938-0.925696-6.547603-1.873969-10.272964l22.442475-22.442475c7.473299 4.673634 16.820567 7.473299 27.116109 7.473299 9.347268 0 18.694536-2.799665 27.116109-7.473299l22.442475 22.442475c-0.925696 2.799665-1.873969 6.547603-1.873969 10.272964 0 15.894871 12.146933 28.041804 28.041804 28.041804 15.894871 0 28.041804-12.146933 28.041804-28.041804s-12.146933-28.041804-28.041804-28.041804c-1.873969 0-2.799665 0-4.673634 0l-24.316444-24.316444c4.673634-7.473299 7.473299-16.820567 7.473299-27.116109 0-9.347268-2.799665-18.694536-7.473299-27.116109l23.36817-23.36817C583.052785 462.463994 584.926754 462.463994 587.726419 462.463994z" p-id="585"></path><path d="M669.052167 261.475151m-28.041804 0a12.42 12.42 0 1 0 56.083609 0 12.42 12.42 0 1 0-56.083609 0Z" p-id="586"></path></svg>
