<?xml version="1.0" standalone="no"?><!DOCTYPE svg PUBLIC "-//W3C//DTD SVG 1.1//EN" "http://www.w3.org/Graphics/SVG/1.1/DTD/svg11.dtd"><svg class="icon" width="200px" height="200.00px" viewBox="0 0 1024 1024" version="1.1" xmlns="http://www.w3.org/2000/svg"><path d="M661.333333 341.333333c-176.725333 0-320 143.253333-320 320s143.274667 320 320 320 320-143.274667 320-320S838.058667 341.333333 661.333333 341.333333zM661.333333 938.666667c-153.173333 0-277.333333-124.16-277.333333-277.333333s124.16-277.333333 277.333333-277.333333 277.333333 124.16 277.333333 277.333333S814.506667 938.666667 661.333333 938.666667zM213.333333 533.333333c-35.349333 0-64 28.672-64 64 0 35.349333 28.650667 64 64 64s64-28.650667 64-64C277.333333 562.005333 248.682667 533.333333 213.333333 533.333333zM213.333333 618.666667c-11.776 0-21.333333-9.536-21.333333-21.333333 0-11.776 9.557333-21.333333 21.333333-21.333333s21.333333 9.557333 21.333333 21.333333C234.666667 609.130667 225.109333 618.666667 213.333333 618.666667zM85.333333 832c-23.552 0-42.666667-19.114667-42.666667-42.666667L42.666667 149.333333c0-23.552 19.114667-42.666667 42.666667-42.666667l42.666667 0c0 35.349333 28.650667 64 64 64s64-28.650667 64-64l85.333333 0c0 35.349333 28.650667 64 64 64s64-28.650667 64-64l85.333333 0c0 35.349333 28.672 64 64 64s64-28.650667 64-64l42.666667 0c23.552 0 42.666667 19.114667 42.666667 42.666667l0 165.333333c14.677333 4.522667 28.842667 10.176 42.666667 16.448L810.666667 149.333333c0-47.125333-38.208-85.333333-85.333333-85.333333l-42.666667 0c0-35.349333-28.672-64-64-64s-64 28.650667-64 64l-85.333333 0c0-35.349333-28.650667-64-64-64s-64 28.650667-64 64l-85.333333 0c0-35.349333-28.650667-64-64-64S128 28.650667 128 64L85.333333 64C38.208 64 0 102.208 0 149.333333l0 640c0 47.125333 38.208 85.333333 85.333333 85.333333l283.157333 0c-9.92-13.610667-19.136-27.733333-27.114667-42.666667L85.333333 832zM597.333333 64c0-11.776 9.536-21.333333 21.333333-21.333333s21.333333 9.557333 21.333333 21.333333l0 42.666667c0 11.797333-9.536 21.333333-21.333333 21.333333s-21.333333-9.536-21.333333-21.333333L597.333333 64zM384 64c0-11.776 9.557333-21.333333 21.333333-21.333333s21.333333 9.557333 21.333333 21.333333l0 42.666667c0 11.797333-9.557333 21.333333-21.333333 21.333333s-21.333333-9.536-21.333333-21.333333L384 64zM170.666667 64c0-11.776 9.557333-21.333333 21.333333-21.333333 11.797333 0 21.333333 9.557333 21.333333 21.333333l0 42.666667c0 11.797333-9.536 21.333333-21.333333 21.333333C180.224 128 170.666667 118.464 170.666667 106.666667L170.666667 64zM853.333333 640l-131.925333 0c-6.442667-18.090667-20.672-32.32-38.741333-38.741333L682.666667 469.333333c0-11.776-9.536-21.333333-21.333333-21.333333s-21.333333 9.557333-21.333333 21.333333l0 131.925333c-24.789333 8.832-42.666667 32.277333-42.666667 60.074667 0 35.349333 28.672 64 64 64 27.818667 0 51.264-17.856 60.074667-42.666667L853.333333 682.666667c11.797333 0 21.333333-9.536 21.333333-21.333333S865.130667 640 853.333333 640zM661.333333 682.666667c-11.797333 0-21.333333-9.536-21.333333-21.333333s9.536-21.333333 21.333333-21.333333 21.333333 9.536 21.333333 21.333333S673.130667 682.666667 661.333333 682.666667zM213.333333 298.666667c-35.349333 0-64 28.650667-64 64 0 35.349333 28.650667 64 64 64s64-28.650667 64-64C277.333333 327.317333 248.682667 298.666667 213.333333 298.666667zM213.333333 384c-11.776 0-21.333333-9.536-21.333333-21.333333 0-11.776 9.557333-21.333333 21.333333-21.333333s21.333333 9.557333 21.333333 21.333333C234.666667 374.464 225.109333 384 213.333333 384zM405.333333 298.666667c-35.349333 0-64 28.650667-64 64 0 29.162667 19.626667 53.482667 46.293333 61.205333 23.36-26.901333 50.602667-50.24 80.896-69.312C464.490667 323.093333 437.888 298.666667 405.333333 298.666667zM405.333333 384c-11.776 0-21.333333-9.536-21.333333-21.333333 0-11.776 9.557333-21.333333 21.333333-21.333333s21.333333 9.557333 21.333333 21.333333C426.666667 374.464 417.109333 384 405.333333 384z" /></svg>
