<?xml version="1.0" standalone="no"?><!DOCTYPE svg PUBLIC "-//W3C//DTD SVG 1.1//EN" "http://www.w3.org/Graphics/SVG/1.1/DTD/svg11.dtd"><svg class="icon" width="200px" height="200.00px" viewBox="0 0 1024 1024" version="1.1" xmlns="http://www.w3.org/2000/svg"><path d="M16.483902 0.499512 16.483902 1023.500488 16.483902 0.499512ZM32.468293 0.499512 32.468293 1023.500488 32.468293 0.499512ZM48.452683 0.499512 48.452683 1023.500488 48.452683 0.499512ZM64.437073 0.499512 64.437073 1023.500488 64.437073 0.499512ZM80.421463 0.499512 80.421463 1023.500488 80.421463 0.499512ZM96.405854 0.499512 96.405854 1023.500488 96.405854 0.499512ZM112.390244 0.499512 112.390244 1023.500488 112.390244 0.499512ZM128.374634 0.499512 128.374634 1023.500488 128.374634 0.499512ZM144.359024 0.499512 144.359024 1023.500488 144.359024 0.499512ZM160.343415 0.499512 160.343415 1023.500488 160.343415 0.499512ZM176.327805 0.499512 176.327805 1023.500488 176.327805 0.499512ZM192.312195 0.499512 192.312195 1023.500488 192.312195 0.499512ZM208.296585 0.499512 208.296585 1023.500488 208.296585 0.499512ZM224.280976 0.499512 224.280976 1023.500488 224.280976 0.499512ZM240.265366 0.499512 240.265366 1023.500488 240.265366 0.499512ZM256.249756 0.499512 256.249756 1023.500488 256.249756 0.499512ZM272.234146 0.499512 272.234146 1023.500488 272.234146 0.499512ZM288.218537 0.499512 288.218537 1023.500488 288.218537 0.499512ZM304.202927 0.499512 304.202927 1023.500488 304.202927 0.499512ZM320.187317 0.499512 320.187317 1023.500488 320.187317 0.499512ZM336.171707 0.499512 336.171707 1023.500488 336.171707 0.499512ZM352.156098 0.499512 352.156098 1023.500488 352.156098 0.499512ZM368.140488 0.499512 368.140488 1023.500488 368.140488 0.499512ZM384.124878 0.499512 384.124878 1023.500488 384.124878 0.499512ZM400.109268 0.499512 400.109268 1023.500488 400.109268 0.499512ZM416.093659 0.499512 416.093659 1023.500488 416.093659 0.499512ZM432.078049 0.499512 432.078049 1023.500488 432.078049 0.499512ZM448.062439 0.499512 448.062439 1023.500488 448.062439 0.499512ZM464.046829 0.499512 464.046829 1023.500488 464.046829 0.499512ZM480.03122 0.499512 480.03122 1023.500488 480.03122 0.499512ZM496.01561 0.499512 496.01561 1023.500488 496.01561 0.499512ZM512 0.499512 512 1023.500488 512 0.499512ZM527.98439 0.499512 527.98439 1023.500488 527.98439 0.499512ZM543.96878 0.499512 543.96878 1023.500488 543.96878 0.499512ZM559.953171 0.499512 559.953171 1023.500488 559.953171 0.499512ZM575.937561 0.499512 575.937561 1023.500488 575.937561 0.499512ZM591.921951 0.499512 591.921951 1023.500488 591.921951 0.499512ZM607.906341 0.499512 607.906341 1023.500488 607.906341 0.499512ZM623.890732 0.499512 623.890732 1023.500488 623.890732 0.499512ZM639.875122 0.499512 639.875122 1023.500488 639.875122 0.499512ZM655.859512 0.499512 655.859512 1023.500488 655.859512 0.499512ZM671.843902 0.499512 671.843902 1023.500488 671.843902 0.499512ZM687.828293 0.499512 687.828293 1023.500488 687.828293 0.499512ZM703.812683 0.499512 703.812683 1023.500488 703.812683 0.499512ZM719.797073 0.499512 719.797073 1023.500488 719.797073 0.499512ZM735.781463 0.499512 735.781463 1023.500488 735.781463 0.499512ZM751.765854 0.499512 751.765854 1023.500488 751.765854 0.499512ZM767.750244 0.499512 767.750244 1023.500488 767.750244 0.499512ZM783.734634 0.499512 783.734634 1023.500488 783.734634 0.499512ZM799.719024 0.499512 799.719024 1023.500488 799.719024 0.499512ZM815.703415 0.499512 815.703415 1023.500488 815.703415 0.499512ZM831.687805 0.499512 831.687805 1023.500488 831.687805 0.499512ZM847.672195 0.499512 847.672195 1023.500488 847.672195 0.499512ZM863.656585 0.499512 863.656585 1023.500488 863.656585 0.499512ZM879.640976 0.499512 879.640976 1023.500488 879.640976 0.499512ZM895.625366 0.499512 895.625366 1023.500488 895.625366 0.499512ZM911.609756 0.499512 911.609756 1023.500488 911.609756 0.499512ZM927.594146 0.499512 927.594146 1023.500488 927.594146 0.499512ZM943.578537 0.499512 943.578537 1023.500488 943.578537 0.499512ZM959.562927 0.499512 959.562927 1023.500488 959.562927 0.499512ZM975.547317 0.499512 975.547317 1023.500488 975.547317 0.499512ZM991.531707 0.499512 991.531707 1023.500488 991.531707 0.499512ZM1007.516098 0.499512 1007.516098 1023.500488 1007.516098 0.499512ZM0.499512 16.483902 1023.500488 16.483902 0.499512 16.483902ZM0.499512 32.468293 1023.500488 32.468293 0.499512 32.468293ZM0.499512 48.452683 1023.500488 48.452683 0.499512 48.452683ZM0.499512 64.437073 1023.500488 64.437073 0.499512 64.437073ZM0.499512 80.421463 1023.500488 80.421463 0.499512 80.421463ZM0.499512 96.405854 1023.500488 96.405854 0.499512 96.405854ZM0.499512 112.390244 1023.500488 112.390244 0.499512 112.390244ZM0.499512 128.374634 1023.500488 128.374634 0.499512 128.374634ZM0.499512 144.359024 1023.500488 144.359024 0.499512 144.359024ZM0.499512 160.343415 1023.500488 160.343415 0.499512 160.343415ZM0.499512 176.327805 1023.500488 176.327805 0.499512 176.327805ZM0.499512 192.312195 1023.500488 192.312195 0.499512 192.312195ZM0.499512 208.296585 1023.500488 208.296585 0.499512 208.296585ZM0.499512 224.280976 1023.500488 224.280976 0.499512 224.280976ZM0.499512 240.265366 1023.500488 240.265366 0.499512 240.265366ZM0.499512 256.249756 1023.500488 256.249756 0.499512 256.249756ZM0.499512 272.234146 1023.500488 272.234146 0.499512 272.234146ZM0.499512 288.218537 1023.500488 288.218537 0.499512 288.218537ZM0.499512 304.202927 1023.500488 304.202927 0.499512 304.202927ZM0.499512 320.187317 1023.500488 320.187317 0.499512 320.187317ZM0.499512 336.171707 1023.500488 336.171707 0.499512 336.171707ZM0.499512 352.156098 1023.500488 352.156098 0.499512 352.156098ZM0.499512 368.140488 1023.500488 368.140488 0.499512 368.140488ZM0.499512 384.124878 1023.500488 384.124878 0.499512 384.124878ZM0.499512 400.109268 1023.500488 400.109268 0.499512 400.109268ZM0.499512 416.093659 1023.500488 416.093659 0.499512 416.093659ZM0.499512 432.078049 1023.500488 432.078049 0.499512 432.078049ZM0.499512 448.062439 1023.500488 448.062439 0.499512 448.062439ZM0.499512 464.046829 1023.500488 464.046829 0.499512 464.046829ZM0.499512 480.03122 1023.500488 480.03122 0.499512 480.03122ZM0.499512 496.01561 1023.500488 496.01561 0.499512 496.01561ZM0.499512 512 1023.500488 512 0.499512 512ZM0.499512 527.98439 1023.500488 527.98439 0.499512 527.98439ZM0.499512 543.96878 1023.500488 543.96878 0.499512 543.96878ZM0.499512 559.953171 1023.500488 559.953171 0.499512 559.953171ZM0.499512 575.937561 1023.500488 575.937561 0.499512 575.937561ZM0.499512 591.921951 1023.500488 591.921951 0.499512 591.921951ZM0.499512 607.906341 1023.500488 607.906341 0.499512 607.906341ZM0.499512 623.890732 1023.500488 623.890732 0.499512 623.890732ZM0.499512 639.875122 1023.500488 639.875122 0.499512 639.875122ZM0.499512 655.859512 1023.500488 655.859512 0.499512 655.859512ZM0.499512 671.843902 1023.500488 671.843902 0.499512 671.843902ZM0.499512 687.828293 1023.500488 687.828293 0.499512 687.828293ZM0.499512 703.812683 1023.500488 703.812683 0.499512 703.812683ZM0.499512 719.797073 1023.500488 719.797073 0.499512 719.797073ZM0.499512 735.781463 1023.500488 735.781463 0.499512 735.781463ZM0.499512 751.765854 1023.500488 751.765854 0.499512 751.765854ZM0.499512 767.750244 1023.500488 767.750244 0.499512 767.750244ZM0.499512 783.734634 1023.500488 783.734634 0.499512 783.734634ZM0.499512 799.719024 1023.500488 799.719024 0.499512 799.719024ZM0.499512 815.703415 1023.500488 815.703415 0.499512 815.703415ZM0.499512 831.687805 1023.500488 831.687805 0.499512 831.687805ZM0.499512 847.672195 1023.500488 847.672195 0.499512 847.672195ZM0.499512 863.656585 1023.500488 863.656585 0.499512 863.656585ZM0.499512 879.640976 1023.500488 879.640976 0.499512 879.640976ZM0.499512 895.625366 1023.500488 895.625366 0.499512 895.625366ZM0.499512 911.609756 1023.500488 911.609756 0.499512 911.609756ZM0.499512 927.594146 1023.500488 927.594146 0.499512 927.594146ZM0.499512 943.578537 1023.500488 943.578537 0.499512 943.578537ZM0.499512 959.562927 1023.500488 959.562927 0.499512 959.562927ZM0.499512 975.547317 1023.500488 975.547317 0.499512 975.547317ZM0.499512 991.531707 1023.500488 991.531707 0.499512 991.531707ZM0.499512 1007.516098 1023.500488 1007.516098 0.499512 1007.516098ZM535.08146 699.43296c-14.577764-13.810513-31.585155-24.424148-50.159017-31.041686l-38.937975-151.627926 463.73913-129.729311 49.679485 193.602935-424.321623 118.795988zM387.449631 288.825943l309.170076-86.475551 49.711454 193.666872-309.138107 86.475551-49.743422-193.666872zM401.324082 665.482115c-8.631571 2.429627-16.655735 5.882256-24.456117 9.68654l-136.31488-531.161288-51.277924 0c-5.146974 11.221042-15.920453 19.117331-28.644027 19.117331l-64.001499 0c-17.678736 0-32.000749-14.993358-32.000749-33.439344s14.322014-33.407376 32.000749-33.407376l64.001499 0c10.74151 0 19.756706 5.882256 25.575024 14.290045l98.463844 0 0 1.630408 1.470564-0.447563 140.982322 549.319555c-8.599602 0.79922-17.199204 2.046002-25.798806 4.411692zM409.603996 697.770583c59.749651-16.719672 121.161678 20.300176 137.178037 82.735204 16.016359 62.371091-19.437019 126.500464-79.218638 143.220137-59.749651 16.655735-121.161678-20.364113-137.178037-82.735204s19.468987-126.500464 79.218638-143.220137zM392.756449 825.741612c6.841319 26.7259 33.183594 42.582416 58.790587 35.38944s40.792164-34.654158 33.950845-61.380059c-6.841319-26.7259-33.183594-42.582416-58.790587-35.453378-25.638962 7.192976-40.824133 34.686127-33.950845 61.443996zM955.406985 694.254018l-373.523231 104.473975c-0.671344-8.91929-1.918127-17.934486-4.219879-26.917713-2.269783-8.983227-5.562568-17.422985-9.238978-25.543056l371.573136-103.898537 15.408952 51.885331z" /></svg>
