<?xml version="1.0" standalone="no"?><!DOCTYPE svg PUBLIC "-//W3C//DTD SVG 1.1//EN" "http://www.w3.org/Graphics/SVG/1.1/DTD/svg11.dtd"><svg t="1498468399906" class="icon" style="" viewBox="0 0 1024 1024" version="1.1" xmlns="http://www.w3.org/2000/svg" p-id="4323" xmlns:xlink="http://www.w3.org/1999/xlink" width="210" height="210"><defs><style type="text/css"></style></defs><path d="M511.394714 958.951495c-247.186775 0-447.612551-200.323445-447.612551-447.437565 0-247.111051 200.425775-447.434495 447.612551-447.434495 247.182682 0 447.572642 200.323445 447.572642 447.434495C958.967356 758.62805 758.577397 958.951495 511.394714 958.951495zM511.394714 175.918615c-185.424106 0-335.701738 150.241816-335.701738 335.595314 0 185.320753 150.277632 335.562569 335.701738 335.562569 185.385221 0 335.697645-150.241816 335.697645-335.562569C847.092359 326.160431 696.779935 175.918615 511.394714 175.918615zM511.394714 623.356181c-30.918173 0-55.955406-25.041326-55.955406-55.919591 0 0-55.959499-161.957649-55.959499-223.719294 0-61.761646 50.080605-111.843274 111.914906-111.843274 61.794391 0 111.910812 50.081629 111.910812 111.843274L567.350121 567.43659C567.350121 598.315878 542.309818 623.356181 511.394714 623.356181zM511.394714 679.276794c30.915104 0 55.955406 25.076118 55.955406 55.919591 0 30.918173-25.040303 55.955406-55.955406 55.955406-30.918173 0-55.955406-25.037233-55.955406-55.955406C455.439308 704.352913 480.476541 679.276794 511.394714 679.276794z" p-id="4324"></path></svg>
