<?xml version="1.0" standalone="no"?><!DOCTYPE svg PUBLIC "-//W3C//DTD SVG 1.1//EN" "http://www.w3.org/Graphics/SVG/1.1/DTD/svg11.dtd"><svg t="1494871472197" class="icon" style="" viewBox="0 0 1024 1024" version="1.1" xmlns="http://www.w3.org/2000/svg" p-id="1416" xmlns:xlink="http://www.w3.org/1999/xlink" width="64" height="64"><defs><style type="text/css"></style></defs><path d="M759.84118 312.315098 759.84118 312.315098 588.860017 312.315098c-5.176906 0-10.203386 0.703011-15.033391 1.99647l0-75.892481c0-31.864732-26.072819-57.938574-57.912991-57.938574 0 0-379.621017-0.332575-393.175731-0.332575-58.898435 0-61.066821 60.279898-61.066821 60.279898L61.817416 697.416943c0 31.890314 26.074865 57.964156 57.963133 57.964156l74.18049 0c14.09502 46.133713 57.026808 79.700203 107.792005 79.700203 50.768267 0 93.64889-33.56649 107.745956-79.700203L515.913635 755.3811c13.356193 0 25.678846-4.631484 35.536354-12.272511 10.104125 8.576329 23.165606 13.800307 37.411051 13.800307l62.447261 0c14.540158 45.345768 57.075927 78.172407 107.251699 78.172407 50.225915 0 92.761684-32.825616 107.301841-78.172407l37.902238 0c31.890314 0 57.915038-26.072819 57.915038-57.963133l0-184.757934L759.84118 312.315098 759.84118 312.315098zM301.753043 792.619212 301.753043 792.619212c-38.788421 0-70.235644-31.420617-70.235644-70.211085s31.446199-70.211085 70.235644-70.211085c38.741349 0 70.186526 31.420617 70.186526 70.211085S340.495416 792.619212 301.753043 792.619212L301.753043 792.619212zM526.065855 672.749124 526.065855 672.749124c0 15.920598-13.06148 28.957519-28.981055 28.957519l-84.579327 0c-9.709129-52.344159-55.597249-91.972714-110.751407-91.972714-55.152111 0-101.089349 39.628556-110.800525 91.972714l-52.392254 0c-15.920598 0-28.931936-13.036921-28.931936-28.957519 0 0-0.542352-371.96771-0.542352-405.471778 0-33.504068 33.615609-33.29429 33.615609-33.29429l239.98577 0.160659L497.084801 234.143715c15.920598 0 28.981055 13.036921 28.981055 28.969798L526.065855 672.749124 526.065855 672.749124zM881.436562 495.741711 881.436562 495.741711c-2.710738 8.809643-10.894118 15.267728-20.555152 15.267728l-199.370747 0c-11.781324 0-21.490453-9.673313-21.490453-21.503756l0-39.577391c0-11.82942 9.709129-21.50171 21.490453-21.50171l152.596444 0L881.436562 495.741711 881.436562 495.741711zM758.558977 792.619212 758.558977 792.619212c-38.739303 0-70.186526-31.420617-70.186526-70.211085s31.446199-70.211085 70.186526-70.211085c38.790468 0 70.237691 31.420617 70.237691 70.211085S797.349445 792.619212 758.558977 792.619212L758.558977 792.619212zM916.08571 683.470303 916.08571 683.470303c0 15.919575-13.06148 28.981055-28.981055 28.981055l-16.313547 0c-5.027503-57.56916-53.330626-102.71743-112.231107-102.71743-58.849316 0-107.152439 45.148269-112.229061 102.71743l-45.937239 0c-11.830443 0-22.081924-7.245008-26.567076-17.47193L573.826626 374.245589c4.485151-10.252505 14.736633-17.460674 26.567076-17.460674l142.098345 0 38.642089 38.654368L652.983453 395.439284c-23.657816 0-43.027979 19.345604-43.027979 42.992163l0 62.559824c0 23.657816 19.370163 42.992163 43.027979 42.992163l220.270752 0c15.229866 0 28.686343-8.035 36.3243-20.097734l6.506181 6.493901L916.084687 683.470303 916.08571 683.470303z" p-id="1417"></path></svg>
