<?xml version="1.0" standalone="no"?><!DOCTYPE svg PUBLIC "-//W3C//DTD SVG 1.1//EN" "http://www.w3.org/Graphics/SVG/1.1/DTD/svg11.dtd"><svg t="1495449974084" class="icon" style="" viewBox="0 0 1024 1024" version="1.1" xmlns="http://www.w3.org/2000/svg" p-id="3159" xmlns:xlink="http://www.w3.org/1999/xlink" width="200" height="200"><defs><style type="text/css"></style></defs><path d="M1023.865306 591.954541 1023.865306 421.323792l-116.753025-34.697253c-7.704514-25.160897-16.755972-49.298116-28.932337-72.142271l59.965906-108.563611-120.416711-120.686099-108.455856 59.481006c-22.844154-12.176365-46.927497-20.204146-72.088393-27.962538L602.541513 0 431.856887 0 397.159634 116.753025C371.998737 124.45754 347.915395 133.562875 325.017363 145.685363L216.453751 85.719457l-120.686099 120.416711 59.481006 108.401978C143.126171 337.436178 129.818373 361.465642 122.113859 386.680417L0.134694 421.323792l0 170.630748 121.979164 34.697253c7.704514 25.160897 19.39598 49.298116 31.518468 72.142271L94.959486 807.357677l121.117121 120.686099 108.725245-59.481006c22.844154 12.176365 47.08913 25.484163 72.250026 33.1348l34.805009 121.979164 170.684626 0 34.697253-121.979164c25.160897-7.704514 49.298116-19.39598 72.142271-31.518468l108.563611 58.67284 120.686099-121.117121-59.481006-108.779122c12.176365-22.844154 20.204146-47.08913 27.90866-72.250026L1023.865306 591.954541zM511.380406 808.70462c-163.626644 0-296.273598-132.593076-296.273598-296.21972s132.646954-296.273598 296.273598-296.273598 296.273598 132.646954 296.273598 296.273598S675.00705 808.70462 511.380406 808.70462z" p-id="3160" fill="#1296db"></path><path d="M511.973061 480.481532c-32.703778 0-62.659792 20.850679-62.659792 46.550353L449.313269 668.083763c0 25.753552 29.956014 46.60423 62.659792 46.60423s62.659792-20.850679 62.659792-46.60423L574.632853 527.031885C574.686731 501.332211 544.730717 480.481532 511.973061 480.481532z" p-id="3161" fill="#1296db"></path><path d="M511.973061 298.59034c-32.703778 0-62.659792 20.850679-62.659792 46.550353l0 33.188677c0 25.753552 29.956014 46.60423 62.659792 46.60423s62.659792-20.850679 62.659792-46.60423L574.632853 345.19457C574.686731 319.494896 544.730717 298.59034 511.973061 298.59034z" p-id="3162" fill="#1296db"></path></svg>