<?xml version="1.0" standalone="no"?><!DOCTYPE svg PUBLIC "-//W3C//DTD SVG 1.1//EN" "http://www.w3.org/Graphics/SVG/1.1/DTD/svg11.dtd"><svg t="1509283530930" class="icon" style="" viewBox="0 0 1024 1024" version="1.1" xmlns="http://www.w3.org/2000/svg" p-id="10931" xmlns:xlink="http://www.w3.org/1999/xlink" width="64" height="64"><defs><style type="text/css"></style></defs><path d="M524.765867 474.453333 715.5712 283.648C729.838933 269.380267 752.162133 269.7216 766.088533 283.648 779.6736 297.233067 780.0832 320.3072 766.1568 334.2336L575.351467 525.038933 766.1568 715.844267C780.0832 729.770667 779.6736 752.8448 766.088533 766.429867 752.162133 780.356267 729.838933 780.6976 715.5712 766.429867L524.765867 575.624533 333.960533 766.429867C319.6928 780.6976 297.3696 780.356267 283.374933 766.429867 269.858133 752.8448 269.448533 729.770667 283.374933 715.844267L474.180267 525.038933 283.374933 334.2336C269.448533 320.3072 269.858133 297.233067 283.374933 283.648 297.3696 269.7216 319.6928 269.380267 333.960533 283.648L524.765867 474.453333ZM512 1024C794.760533 1024 1024 794.760533 1024 512 1024 229.239467 794.760533 0 512 0 229.239467 0 0 229.239467 0 512 0 794.760533 229.239467 1024 512 1024Z" p-id="10932"></path></svg>