<?xml version="1.0" standalone="no"?><!DOCTYPE svg PUBLIC "-//W3C//DTD SVG 1.1//EN" "http://www.w3.org/Graphics/SVG/1.1/DTD/svg11.dtd"><svg t="1496159437379" class="icon" style="" viewBox="0 0 1635 1024" version="1.1" xmlns="http://www.w3.org/2000/svg" p-id="1891" xmlns:xlink="http://www.w3.org/1999/xlink" width="102.1875" height="64"><defs><style type="text/css"></style></defs><path d="M817.2 0C365.6 0 0 455.6 0 512c0 56.4 365.6 512 817.2 512 451.6 0 817.2-462.8 817.2-512C1634.4 462.8 1268.8 0 817.2 0L817.2 0zM817.2 931.8c-231.4 0-419.8-187.4-419.8-418.8S584.8 94.2 817.2 94.2c232.4 0 419.8 187.4 419.8 418.8S1048.6 931.8 817.2 931.8L817.2 931.8zM817.2 272.4c-26.6 0-52.2 4-76.8 12.2 16.4 18.4 26.6 42 26.6 68.6 0 56.4-45 101.4-101.4 101.4-28.6 0-54.2-12.2-72.8-30.8-11.2 27.6-17.4 58.4-17.4 91.2 0 133.2 108.6 241.6 241.6 241.6 133.2 0 241.6-108.6 241.6-241.6C1058.8 382 951.2 272.4 817.2 272.4L817.2 272.4zM817.2 272.4" p-id="1892"></path></svg>