<?xml version="1.0" standalone="no"?><!DOCTYPE svg PUBLIC "-//W3C//DTD SVG 1.1//EN" "http://www.w3.org/Graphics/SVG/1.1/DTD/svg11.dtd"><svg t="1507724072543" class="icon" style="" viewBox="0 0 1024 1024" version="1.1" xmlns="http://www.w3.org/2000/svg" p-id="4326" xmlns:xlink="http://www.w3.org/1999/xlink" width="64" height="64"><defs><style type="text/css"></style></defs><path d="M861.714382 568.738235H298.303478l241.85535 219.300659c21.941732 21.948895 21.941732 57.538461 0 79.483262-21.962198 21.948895-57.538461 21.948895-79.486332 0l-341.800643-319.245951c-9.918907-9.923-14.027481-23.323195-12.742209-36.275182-1.285273-12.958126 2.822278-26.362414 12.742209-36.282344L460.672496 156.479891c21.948895-21.955034 57.524135-21.955034 79.486332 0 21.941732 21.948895 21.941732 57.528228 0 79.473029l-242.561431 220.021066h564.118008c31.135114 0 56.386218 25.236777 56.386218 56.379055-0.001023 31.134091-25.252127 56.385195-56.387241 56.385194z" p-id="4327"></path></svg>
