<?xml version="1.0" standalone="no"?><!DOCTYPE svg PUBLIC "-//W3C//DTD SVG 1.1//EN" "http://www.w3.org/Graphics/SVG/1.1/DTD/svg11.dtd"><svg t="1494947265242" class="icon" style="" viewBox="0 0 1024 1024" version="1.1" xmlns="http://www.w3.org/2000/svg" p-id="968" xmlns:xlink="http://www.w3.org/1999/xlink" width="200" height="200"><defs><style type="text/css"></style></defs><path d="M63.791373 425.629887l192.486966 0 0 171.410951-192.486966 0 0-171.410951Z" p-id="969"></path><path d="M383.473253 425.629887l576.478524 0 0 171.410951-576.478524 0 0-171.410951Z" p-id="970"></path><path d="M63.791373 103.814414l192.486966 0 0 171.410951-192.486966 0 0-171.410951Z" p-id="971"></path><path d="M383.473253 103.814414l576.478524 0 0 171.410951-576.478524 0 0-171.410951Z" p-id="972"></path><path d="M63.791373 754.605434l192.486966 0 0 171.410951-192.486966 0 0-171.410951Z" p-id="973"></path><path d="M383.473253 754.605434l576.478524 0 0 171.410951-576.478524 0 0-171.410951Z" p-id="974"></path></svg>
