<?xml version="1.0" standalone="no"?><!DOCTYPE svg PUBLIC "-//W3C//DTD SVG 1.1//EN" "http://www.w3.org/Graphics/SVG/1.1/DTD/svg11.dtd"><svg class="icon" width="200px" height="200.00px" viewBox="0 0 1024 1024" version="1.1" xmlns="http://www.w3.org/2000/svg"><path d="M899.80542 252.93264 124.193557 252.93264c-32.04074 0-58.014298-25.973558-58.014298-58.014298l0-74.306356c0-32.04074 25.973558-58.014298 58.014298-58.014298l775.611863 0c32.04074 0 58.014298 25.973558 58.014298 58.014298l0 74.306356C957.819718 226.959082 931.84616 252.93264 899.80542 252.93264zM899.80542 574.250786 124.193557 574.250786c-32.04074 0-58.014298-25.973558-58.014298-58.014298l0-74.306356c0-32.04074 25.973558-58.014298 58.014298-58.014298l775.611863 0c32.04074 0 58.014298 25.973558 58.014298 58.014298l0 74.306356C957.819718 548.277228 931.84616 574.250786 899.80542 574.250786zM899.80542 892.499014 124.193557 892.499014c-32.04074 0-58.014298-25.973558-58.014298-58.014298l0-74.306356c0-32.04074 25.973558-58.014298 58.014298-58.014298l775.611863 0c32.04074 0 58.014298 25.973558 58.014298 58.014298l0 74.306356C957.819718 866.525456 931.84616 892.499014 899.80542 892.499014z" /></svg>
