<?xml version="1.0" standalone="no"?><!DOCTYPE svg PUBLIC "-//W3C//DTD SVG 1.1//EN" "http://www.w3.org/Graphics/SVG/1.1/DTD/svg11.dtd"><svg class="icon" width="210px" height="210.00px" viewBox="0 0 1024 1024" version="1.1" xmlns="http://www.w3.org/2000/svg"><path fill="#1296db" d="M512 57.25662c-251.148744 0-454.74338 203.594636-454.74338 454.74338S260.851256 966.74338 512 966.74338s454.74338-203.594636 454.74338-454.74338S763.148744 57.25662 512 57.25662zM843.223357 504.75322l-11.933226 1.576339c-6.667816-0.205557-13.166566-2.2222-18.771326-5.939246-8.65162-5.64125-14.598164-14.927784-16.319244-25.493877-1.226041-7.20421-2.398565-14.099476-3.880032-21.06164-6.558348-30.404124-17.422438-59.284211-32.285757-85.802221-17.872473-31.872211-41.104011-59.459359-69.049971-81.991519-26.635993-21.514108-57.840449-38.257844-90.245405-48.429852-29.594061-9.292615-61.399375-13.692012-94.537766-13.083857l-0.246911 0.002433c-1.171307 0-2.343831-0.041355-3.515139-0.086358-0.645861-0.025543-1.291722-0.051085-1.937583-0.062032-2.509249 0.21772-4.898084 0.330837-7.216373 0.441521-2.336533 0.111901-4.542921 0.216503-6.700657 0.419627l-0.225018 0.019461c-8.290375 0.637347-17.379867 1.899878-28.603984 3.971255-19.291907 3.617309-37.782266 9.00435-54.921303 16.001786-30.610897 12.3638-58.728356 29.738802-83.617727 51.665239-24.989108 21.865621-45.83911 47.318144-62.003882 75.680082-17.988022 31.333386-29.9176 65.950811-35.478573 102.927879-0.428141 2.818192-0.7979 5.680172-1.139683 8.557964-0.12528 0.120415-0.244478 0.245695-0.369759 0.36611-1.597016 13.56065-2.264771 27.657694-1.905959 41.290107 0.256642 6.982841 0.868446 14.669926 1.92542 24.181477 1.060623 9.55169 2.545739 18.90877 4.412776 27.814598 7.70533 36.108622 21.495863 69.295666 40.978731 98.592947l0.086358 0.130145c19.068106 29.414047 42.961318 55.091587 71.016746 76.317429 28.548034 21.521405 61.711967 38.232301 95.886655 48.309437 10.094164 2.995774 20.452268 5.433261 30.96606 7.344085 23.589134 5.950193 47.979817 8.964211 73.172049 9.043272 41.059008 1.548364 79.358206-7.012032 114.898811-25.684838 36.972203-12.026882 68.963613-32.581321 95.975446-61.663315 29.081994-27.011833 47.150293-51.179931 66.444633-92.082034 21.488565-44.598472 27.110354-84.08479 27.110354-84.08479s7.294217 33.315972 4.607386 48.544185c-1.571474 8.48012-3.34972 17.437033-5.843158 26.246773-2.427757 8.668648-5.349335 16.757116-7.885344 23.521021-6.204402 16.715761-12.903843 31.627733-20.469296 45.547195-8.792712 16.219506-19.640989 32.029115-33.159068 48.319168-13.783235 16.648864-26.958315 30.231408-40.267189 41.516341-29.354448 24.704491-62.473378 44.25304-98.474965 58.137229-36.749618 14.099476-75.804145 21.902111-116.09931 23.201131-3.984635 0.141092-7.991163 0.211638-12.002556 0.211638-36.332423 0.001216-73.55397-5.761665-108.358707-16.837392-37.594954-11.991609-72.504294-29.798401-103.76835-52.928986-30.541567-22.428773-57.321085-49.584131-79.558897-80.682769-11.164518-15.69406-21.056775-32.200615-29.420129-49.085443-8.13712-16.42263-15.087121-33.971564-21.245303-53.644177-8.565261-27.196712-13.684714-57.276081-15.213617-89.379392-1.528903-29.806915 1.263747-61.089216 8.301322-92.928587 8.101847-37.081671 22.843535-73.309492 43.809087-107.645949 18.37116-29.875029 41.06144-56.920918 67.459036-80.422478 26.160415-23.287489 55.602437-42.737517 87.508705-57.808825 37.281146-17.514877 78.120001-28.841165 118.1269-32.763767 13.677416-1.256449 27.531198-1.90231 41.338759-1.931502 1.993534-0.006082 3.987067 0.001216 5.978168 0.020677 19.436648 0.153255 39.194403 2.303693 60.367944 6.571728 38.543677 7.869532 75.182611 21.911841 108.927941 41.743791 34.24645 20.003449 64.76734 45.678557 90.683277 76.291886 23.938215 28.466541 43.228906 59.959263 57.368521 93.640129 6.867291 16.078414 12.677609 33.179746 17.233909 50.755438 3.24755 12.549896 5.997629 25.919586 8.403492 40.874128 1.210229 7.127582 0.229883 14.509373-2.836437 21.352338C862.251325 494.217534 853.716471 501.606623 843.223357 504.75322z" /></svg>