<?xml version="1.0" standalone="no"?><!DOCTYPE svg PUBLIC "-//W3C//DTD SVG 1.1//EN" "http://www.w3.org/Graphics/SVG/1.1/DTD/svg11.dtd"><svg t="1493815019040" class="icon" style="" viewBox="0 0 1040 1024" version="1.1" xmlns="http://www.w3.org/2000/svg" p-id="496" xmlns:xlink="http://www.w3.org/1999/xlink" width="130" height="128"><defs><style type="text/css"></style></defs><path d="M46.431711 130.483724c33.98196-9.707418 69.405743 9.969441 79.11516 43.9534l5.021595 17.58088 596.905698 0 8.991504-71.933629c4.003686-32.026086 31.228227-56.058592 63.502146-56.058592L959.95814 64.025783c35.343837 0 63.996011 28.652174 63.996011 63.996211S995.301977 192.018004 959.95814 192.018004l-103.49583 0-56.988562 455.910293c-4.003686 32.024088-31.228027 56.058592-63.502146 56.058592L192.004813 703.986889c-28.572228 0-53.684802-18.942957-61.53428-46.415131L2.478312 209.598884C-7.231105 175.614925 12.447752 140.193141 46.431711 130.483724L46.431711 130.483724zM511.985266 448.002446l0-63.996211-127.988224 0 0 63.996211C383.997242 448.002446 511.985466 448.002446 511.985266 448.002446zM383.997242 511.998657l0 63.996211 127.988224 0 0-63.996211L383.997242 511.998657zM511.985266 320.010225l0-63.996211-127.988224 0 0 63.996211C383.997242 320.010225 511.985466 320.010225 511.985266 320.010225zM719.474788 256.014014l-143.493312 0 0 63.996211 135.493735 0L719.474788 256.014014zM703.475636 384.006236l-127.494359 0 0 63.996211 119.494783 0L703.475636 384.006236zM687.476683 511.998657l-111.495206 0 0 63.996211 103.49583 0L687.476683 511.998657zM240.277884 575.994668l79.723148 0 0-63.996211-98.007951 0L240.277884 575.994668 240.277884 575.994668zM203.708078 448.002446l116.292953 0 0-63.996211-134.577756 0L203.708078 448.002446zM167.138272 320.010225l152.862759 0 0-63.996211L148.853469 256.014014 167.138272 320.010225zM767.969709 863.977215c0-53.015855-42.978461-95.994116-95.994116-95.994116s-95.994116 42.978461-95.994116 95.994116c0 53.015655 42.978461 95.994116 95.994116 95.994116S767.969709 916.992871 767.969709 863.977215zM383.993045 863.977215c0-53.015855-42.978461-95.994116-95.994116-95.994116s-95.994116 42.978461-95.994116 95.994116c0 53.015655 42.978461 95.994116 95.994116 95.994116S383.993045 916.992871 383.993045 863.977215z" p-id="497" fill="#ffffff"></path></svg>