<?xml version="1.0" standalone="no"?><!DOCTYPE svg PUBLIC "-//W3C//DTD SVG 1.1//EN" "http://www.w3.org/Graphics/SVG/1.1/DTD/svg11.dtd"><svg t="1509382532301" class="icon" style="" viewBox="0 0 1024 1024" version="1.1" xmlns="http://www.w3.org/2000/svg" p-id="6381" xmlns:xlink="http://www.w3.org/1999/xlink" width="64" height="64"><defs><style type="text/css"></style></defs><path d="M449.817264 86.181825l506.153852 0 0 56.165184-506.153852 0 0-56.165184Z" p-id="6382"></path><path d="M153.486208 68.505233l56.133462 0 0 762.305813-56.133462 0 0-762.305813Z" p-id="6383"></path><path d="M449.817264 289.367457l403.77616 0 0 56.165184-403.77616 0 0-56.165184Z" p-id="6384"></path><path d="M449.817264 492.552066l301.400514 0 0 56.167231-301.400514 0 0-56.167231Z" p-id="6385"></path><path d="M449.817264 695.737698l198.992123 0 0 56.105832-198.992123 0 0-56.105832Z" p-id="6386"></path><path d="M449.817264 898.92333l95.198176 0 0 56.165184-95.198176 0 0-56.165184Z" p-id="6387"></path><path d="M294.473243 759.384273 181.539124 955.088514 68.605006 759.384273Z" p-id="6388"></path></svg>