<?xml version="1.0" standalone="no"?><!DOCTYPE svg PUBLIC "-//W3C//DTD SVG 1.1//EN" "http://www.w3.org/Graphics/SVG/1.1/DTD/svg11.dtd"><svg t="1509625383911" class="icon" style="" viewBox="0 0 1024 1024" version="1.1" xmlns="http://www.w3.org/2000/svg" p-id="7907" xmlns:xlink="http://www.w3.org/1999/xlink" width="64" height="64"><defs><style type="text/css"></style></defs><path d="M931.254875 57.813615c-4.076844-18.94136-14.709997-32.820434-31.030675-42.531591-11.378119-6.771204-24.007739-13.148435-42.135572-12.215182-8.710365 0.883111-19.250398 5.087868-27.629212 10.233042-16.525339 10.149131-30.115841 25.955087-42.693273 42.809929-20.654371 26.661166-35.450326 54.685374-51.962362 83.568134-31.45023 54.839893-62.973114 108.966543-87.492505 172.42675-13.492265 34.472047-40.336603 129.225918 5.116521 147.86745 11.10592 4.554727 24.499948 1.792829 34.280689-2.55826 24.880617-10.251461 47.747372-32.72629 61.909901-48.095295 17.362402-18.560691 32.415206-39.03189 47.071991-59.863293 23.339521-33.169381 42.297254-69.926466 62.421553-104.888676 24.264588-41.538985 46.766023-79.527106 64.468162-124.331455C932.130823 98.476652 935.315346 76.672087 931.254875 57.813615M541.12426 509.161354c55.734261 34.313435 150.242539 89.510461 150.242539 89.510461s15.780373 9.69683 22.947596 10.702738c9.843163 1.315969 20.723956-2.750642 27.629212-12.27965 1.074469-2.029212 2.67901-3.994979 3.774969-5.906512 12.194716-21.246864 24.322916-35.663173 16.179462-53.956781-4.523004-10.315929-12.402446-14.960707-22.296774-20.664604-8.994844-5.185082-19.28519-11.054755-26.821825-15.662693-39.562985-23.532926-79.139273-47.074038-118.703282-70.607987-7.770972-4.381788-16.611296-10.061126-25.070952-15.349562-4.140289-2.587936-8.473982-5.02954-12.434169-7.305368-6.122429-2.525515-11.930703-4.109589-18.264956-3.950977-5.820554 0.621146-11.240996 3.075029-16.372866 7.163129-5.659895 5.233177-8.655107 11.759811-12.27965 17.907823-10.984147 18.037782-22.373522 34.976536-8.186433 54.23512C509.017068 491.974961 519.209178 495.669089 541.12426 509.161354M769.267874 691.056737c-14.01415-19.128625-33.611448-28.528696-57.000088-42.283951-55.593045-33.083423-111.204509-66.17708-166.798577-99.260503-25.730983-15.746604-49.464476-29.898901-72.516449-43.592757-26.663213-16.426078-61.60291-22.852428-110.143343-21.898709-7.843626 0.682544-15.691346 1.365088-23.535996 2.046608-21.665396 3.745293-39.86179 7.092521-54.23512 18.931127-11.155039 9.01531-19.406963 24.416037-28.140864 37.350602-14.375377 23.145093-30.894576 41.692481-53.211816 54.746772-11.231786 6.571659-25.241844 10.407003-39.908862 13.302954-5.456258 0.511652-10.39984 1.06833-15.861214 1.534956-14.570828 3.409649-36.518655 19.077459-47.583643 34.792341-4.870928 7.13857-7.815997 14.187089-9.209737 22.001039-1.257641 14.418356 6.545053 21.605021 18.931127 28.652516 8.229412 4.988608 17.632554 10.004845 23.024343 13.302954 19.099972 11.426214 37.18278 22.343846 56.281728 33.769037 11.839629 2.628868 22.859591-3.724827 30.187473-7.163129 17.843355-8.030891 32.571771-18.555574 47.583643-28.652516 7.163129-5.286389 14.327281-10.063173 21.489387-15.349562-16.037223 26.433993-54.160419 105.146548-40.420514 147.355798 7.516169 24.708702 33.449766 31.700939 55.258424 46.048687 24.216493 14.325235 48.439125 28.654563 72.654595 42.978774 9.425655 1.670032 22.721445 0.401135 38.373906-0.511652 21.899732-1.678219 49.728489-3.63887 73.166247-7.163129-6.159268 11.652364-22.302914 36.468513-15.349562 59.351641 5.018284 12.266347 19.078483 16.26542 31.210777 21.489387 33.790526 14.549338 85.387568 27.780661 128.936323 8.698085 33.285014-14.393796 47.59183-42.275764 63.95651-72.654595 18.930104-33.764944 37.8643-67.541144 56.793381-101.307111 13.958892-25.8415 28.674006-45.442891 34.280689-72.142943 1.330295-14.119551 0.795107-26.374641-1.534956-36.327297C781.949682 711.991494 776.31537 700.675796 769.267874 691.056737" p-id="7908"></path></svg>