<?xml version="1.0" standalone="no"?><!DOCTYPE svg PUBLIC "-//W3C//DTD SVG 1.1//EN" "http://www.w3.org/Graphics/SVG/1.1/DTD/svg11.dtd"><svg t="1506260863434" class="icon" style="" viewBox="0 0 1024 1024" version="1.1" xmlns="http://www.w3.org/2000/svg" p-id="2415" xmlns:xlink="http://www.w3.org/1999/xlink" width="64" height="64"><defs><style type="text/css"></style></defs><path d="M622.276923 508.061538l257.969231-257.96923c11.815385-11.815385 11.815385-29.538462 0-41.353846l-41.353846-41.353847c-11.815385-11.815385-29.538462-11.815385-41.353846 0L539.569231 425.353846c-7.876923 7.876923-19.692308 7.876923-27.569231 0L254.030769 165.415385c-11.815385-11.815385-29.538462-11.815385-41.353846 0l-41.353846 41.353846c-11.815385 11.815385-11.815385 29.538462 0 41.353846l257.969231 257.969231c7.876923 7.876923 7.876923 19.692308 0 27.56923L169.353846 793.6c-11.815385 11.815385-11.815385 29.538462 0 41.353846l41.353846 41.353846c11.815385 11.815385 29.538462 11.815385 41.353846 0L512 618.338462c7.876923-7.876923 19.692308-7.876923 27.569231 0l257.969231 257.96923c11.815385 11.815385 29.538462 11.815385 41.353846 0l41.353846-41.353846c11.815385-11.815385 11.815385-29.538462 0-41.353846L622.276923 535.630769c-5.907692-7.876923-5.907692-19.692308 0-27.569231z" p-id="2416"></path></svg>