<?xml version="1.0" standalone="no"?><!DOCTYPE svg PUBLIC "-//W3C//DTD SVG 1.1//EN" "http://www.w3.org/Graphics/SVG/1.1/DTD/svg11.dtd"><svg t="1510108177271" class="icon" style="" viewBox="0 0 1024 1024" version="1.1" xmlns="http://www.w3.org/2000/svg" p-id="4747" xmlns:xlink="http://www.w3.org/1999/xlink" width="64" height="64"><defs><style type="text/css"></style></defs><path d="M511.808642 65.054645c-246.710938 0-446.708971 199.999057-446.708971 446.708971s199.999057 446.708971 446.708971 446.708971 446.708971-199.999057 446.708971-446.708971S758.51958 65.054645 511.808642 65.054645zM716.583468 658.653081c15.985066 15.985066 15.985066 41.901319 0 57.886385-7.993045 7.993045-18.467607 11.989055-28.943193 11.989055s-20.951171-3.996011-28.943193-11.989055L511.808642 569.651025 364.9202 716.539466c-7.993045 7.993045-18.467607 11.989055-28.943193 11.989055s-20.951171-3.996011-28.943193-11.989055c-15.985066-15.985066-15.985066-41.901319 0-57.886385l146.888442-146.888442L307.033815 364.876198c-15.985066-15.985066-15.985066-41.902342 0-57.886385s41.901319-15.985066 57.886385 0l146.887418 146.888442L658.69606 306.989813c15.985066-15.985066 41.901319-15.985066 57.886385 0 15.985066 15.985066 15.985066 41.901319 0 57.886385L569.695027 511.76464 716.583468 658.653081z" p-id="4748"></path></svg>