<?xml version="1.0" standalone="no"?><!DOCTYPE svg PUBLIC "-//W3C//DTD SVG 1.1//EN" "http://www.w3.org/Graphics/SVG/1.1/DTD/svg11.dtd"><svg t="1505419254785" class="icon" style="" viewBox="0 0 1024 1024" version="1.1" xmlns="http://www.w3.org/2000/svg" p-id="3275" xmlns:xlink="http://www.w3.org/1999/xlink" width="64" height="64"><defs><style type="text/css"></style></defs><path d="M306.816 818.176c-56.256 0-101.824 46.016-101.824 102.208 0 56.32 45.568 102.336 101.824 102.336 56.192 0 102.272-46.016 102.272-102.336a102.528 102.528 0 0 0-102.272-102.208zM0 0v102.336h102.336l184 388.032-68.992 125.184c-8.192 14.464-12.8 31.296-12.8 49.216 0 56.256 46.08 102.336 102.336 102.336h613.632v-102.336H328.256a12.608 12.608 0 0 1-12.736-12.736l1.536-6.144 45.952-83.392h381.056c38.336 0 72.128-20.928 89.344-52.672l183.104-331.904a51.264 51.264 0 0 0-44.992-75.584H215.296L167.232 0H0z m818.048 818.176c-56.192 0-101.632 46.016-101.632 102.208 0 56.32 45.44 102.336 101.632 102.336 56.448 0 102.464-46.016 102.464-102.336 0-56.192-46.016-102.208-102.464-102.208z" p-id="3276"></path></svg>