<?xml version="1.0" standalone="no"?><!DOCTYPE svg PUBLIC "-//W3C//DTD SVG 1.1//EN" "http://www.w3.org/Graphics/SVG/1.1/DTD/svg11.dtd"><svg t="1495466992227" class="icon" style="" viewBox="0 0 1024 1024" version="1.1" xmlns="http://www.w3.org/2000/svg" p-id="488" xmlns:xlink="http://www.w3.org/1999/xlink" width="200" height="200"><defs><style type="text/css"></style></defs><path d="M512 0C229.218 0 0 229.218 0 512s229.218 512 512 512 512-229.218 512-512S794.782 0 512 0zM512 944c-238.594 0-432-193.406-432-432S273.406 80 512 80s432 193.406 432 432S750.594 944 512 944z" p-id="489" fill="#1296db"></path><path d="M384 416l256 0 0 192-256 0 0-192Z" p-id="490" fill="#1296db"></path><path d="M672 384l32 0 0 256-32 0 0-256Z" p-id="491" fill="#1296db"></path><path d="M736 320l32 0 0 384-32 0 0-384Z" p-id="492" fill="#1296db"></path><path d="M320 384l32 0 0 256-32 0 0-256Z" p-id="493" fill="#1296db"></path><path d="M256 320l32 0 0 384-32 0 0-384Z" p-id="494" fill="#1296db"></path></svg>