<?xml version="1.0" standalone="no"?><!DOCTYPE svg PUBLIC "-//W3C//DTD SVG 1.1//EN" "http://www.w3.org/Graphics/SVG/1.1/DTD/svg11.dtd"><svg t="1507498144053" class="icon" style="" viewBox="0 0 1024 1024" version="1.1" xmlns="http://www.w3.org/2000/svg" p-id="11389" xmlns:xlink="http://www.w3.org/1999/xlink" width="64" height="64"><defs><style type="text/css"></style></defs><path d="M943.518737 515.632657L532.568002 104.579594c-22.0006-22.0006-52.392126-31.005496-81.146397-27.014689-8.18627-1.739582-16.781853-2.762866-25.479764-2.762866H201.22874c-67.025082 0-121.77076 54.848006-121.770761 121.77076v224.610772c0 8.697911 0.920955 17.293495 2.762866 25.479765-3.990806 28.8566 5.01409 59.145798 27.01469 81.146397l410.950735 410.950735c37.349855 37.349855 98.337564 37.349855 135.687418 0L943.518737 651.115419c37.349855-37.145198 37.349855-98.235235 0-135.482762z m-626.55661-7.060657c-54.131708 0-98.030579-43.898871-98.030579-98.030579s43.898871-98.030579 98.030579-98.030579c52.699111 0 95.677026 41.545318 97.92825 93.630459 0.102328 1.330269 0.102328 2.660538 0.102328 3.990807v0.409313c0 54.131708-43.898871 98.030579-98.030578 98.030579zM439.858499 717.62886c-3.172179 6.344359-18.82842 6.958329-34.996303 1.330269-16.167882-5.62806-26.707705-15.349256-23.535525-21.693615l200.154292-399.694614c3.172179-6.344359 18.82842-6.958329 34.996303-1.330268 16.167882 5.62806 26.707705 15.349256 23.535525 21.693614L439.858499 717.62886z m274.240032-35.20096c-54.131708 0-98.030579-43.898871-98.030579-98.030578S659.864495 486.366743 714.098531 486.366743c52.699111 0 95.677026 41.545318 97.92825 93.630459 0.102328 1.330269 0.102328 2.660538 0.102329 3.990806v0.409314c0 54.131708-43.898871 98.030579-98.030579 98.030578z" p-id="11390"></path></svg>