<?xml version="1.0" standalone="no"?><!DOCTYPE svg PUBLIC "-//W3C//DTD SVG 1.1//EN" "http://www.w3.org/Graphics/SVG/1.1/DTD/svg11.dtd"><svg t="1494928895753" class="icon" style="" viewBox="0 0 1024 1024" version="1.1" xmlns="http://www.w3.org/2000/svg" p-id="7809" xmlns:xlink="http://www.w3.org/1999/xlink" width="64" height="64"><defs><style type="text/css"></style></defs><path d="M876.992 568.96l0 304c0 11.008-4.096 20.48-12.096 28.544-8 8-17.472 12.032-28.416 12.032L593.152 913.536l0-243.392L430.912 670.144l0 243.392L187.712 913.536c-11.008 0-20.48-4.032-28.544-12.032-8-8.064-12.032-17.536-12.032-28.544L147.136 568.96c0-0.448 0.128-1.088 0.32-1.92 0.192-0.832 0.32-1.472 0.32-1.92L512 264.896l364.224 300.288C876.736 566.016 876.992 567.232 876.992 568.96L876.992 568.96zM1018.176 525.312l-39.296 46.848c-3.328 3.776-7.744 6.144-13.312 6.976l-1.792 0c-5.504 0-9.92-1.472-13.376-4.48L512 209.152 73.536 574.656C68.48 578.048 63.424 579.584 58.368 579.136c-5.504-0.896-9.92-3.2-13.248-6.976L5.76 525.312C2.432 521.024 0.896 516.032 1.344 510.4c0.448-5.696 2.688-10.24 6.976-13.632l455.424-379.456C477.312 106.304 493.376 100.8 512 100.8c18.624 0 34.688 5.504 48.192 16.448l154.624 129.216 0-123.52c0-5.952 1.92-10.752 5.696-14.528 3.904-3.84 8.768-5.696 14.592-5.76l121.728 0c5.824 0 10.752 1.856 14.528 5.76 3.776 3.776 5.632 8.64 5.76 14.528L877.12 381.44l138.752 115.328c4.096 3.392 6.528 7.936 6.848 13.632C1023.104 516.032 1021.632 521.024 1018.176 525.312L1018.176 525.312zM1018.176 525.312" p-id="7810"></path></svg>